<svg xmlns="http://www.w3.org/2000/svg" viewBox="0 0 423.74 347.18"><defs><style>.cls-1{fill:#004ba0;}</style></defs><g id="graphics"><path class="cls-1" d="M416.69,276.76c-6.52-3.54-14.39-1.66-17.58,4.2s-.48,13.49,6.05,17,14.4,1.67,17.59-4.19S423.23,280.31,416.69,276.76Z" transform="translate(-181.09 -97.92)"/><path class="cls-1" d="M431.88,222.48a8.64,8.64,0,1,0-9-8.28A8.63,8.63,0,0,0,431.88,222.48Z" transform="translate(-181.09 -97.92)"/><path class="cls-1" d="M487.59,250.85a8.64,8.64,0,1,0,9,8.27A8.63,8.63,0,0,0,487.59,250.85Z" transform="translate(-181.09 -97.92)"/><path class="cls-1" d="M496,133.61C498.85,103,476.86,97,466.38,98c-13.3,1.33-28.59,9.14-27.16,36.58C439.22,134.61,463.56,118.46,496,133.61Z" transform="translate(-181.09 -97.92)"/><path class="cls-1" d="M205.54,281.12l-8.82,3.08a23.22,23.22,0,0,0,10.57,45c5.39,45.35,27.25,115.94,70.1,115.94h34.12c12.9,0,19.34-19.54,4.56-24.45-12.69-4.22-18.58-31.11-6.91-38.27,7.24.93,12.46,1.63,20.17,2.15,7.25,27.37,31.16,60.57,52.71,60.57h30.49c13.12,0,18.05-8.92,4.57-22.56-7.75-7.84-5.2-25.56-2.7-37.07,14.11-.41,15.72-1.26,27.75-2.85C475,376,485.69,356.37,486.57,340c1-18.59-16.6-35.68-39.66-29.25-6.91,2.19-16.76,5-24,5.7-24.29,2.19-41.9-14.62-38.06-34.79S406,254.93,406,217.85c0-30,7.24-65.11,32.14-82.23C334.59,126.36,234.35,164.69,205.54,281.12Z" transform="translate(-181.09 -97.92)"/><path class="cls-1" d="M459.12,391.6c3.69,9.32,6.09,23.73-1.24,30.55-11,10.24-9.48,23,2.58,23h30.41c31.17,0,81.16-84.6,72.36-158.33C543.63,343.59,511,369.5,459.12,391.6Z" transform="translate(-181.09 -97.92)"/><path class="cls-1" d="M603.61,203.49C598.78,191,586,181.34,559.89,190c0,0,21.62,20.5,11.51,53.08C603.87,236.75,607.41,213.31,603.61,203.49Z" transform="translate(-181.09 -97.92)"/></g></svg>